<svg xmlns="http://www.w3.org/2000/svg" width="1919" height="1080" viewBox="0 0 1919 1080">
  <metadata><?xpacket begin="﻿" id="W5M0MpCehiHzreSzNTczkc9d"?>
<x:xmpmeta xmlns:x="adobe:ns:meta/" x:xmptk="Adobe XMP Core 5.6-c140 79.160451, 2017/05/06-01:08:21        ">
   <rdf:RDF xmlns:rdf="http://www.w3.org/1999/02/22-rdf-syntax-ns#">
      <rdf:Description rdf:about=""/>
   </rdf:RDF>
</x:xmpmeta>
                                                                                                    
                                                                                                    
                                                                                                    
                                                                                                    
                                                                                                    
                                                                                                    
                                                                                                    
                                                                                                    
                                                                                                    
                                                                                                    
                                                                                                    
                                                                                                    
                                                                                                    
                                                                                                    
                                                                                                    
                                                                                                    
                                                                                                    
                                                                                                    
                                                                                                    
                                                                                                    
                           
<?xpacket end="w"?></metadata>
<defs>
    <style>
      .cls-1, .cls-2 {
        fill: #7b2e00;
      }

      .cls-2, .cls-3, .cls-4, .cls-5, .cls-6 {
        fill-rule: evenodd;
      }

      .cls-3, .cls-6 {
        fill: #d17a00;
      }

      .cls-4 {
        fill: #ff9915;
      }

      .cls-5 {
        fill: #8dc63f;
      }

      .cls-6 {
        stroke: #d17a00;
        stroke-width: 3px;
      }
    </style>
  </defs>
  <rect class="cls-1" x="912" y="539" width="48" height="452"/>
  <path class="cls-2" d="M915,544L718,482,670,366,522,377,458,270l71,92,142-12,18-2,53,102,165,45,29-1Z"/>
  <path class="cls-3" d="M459,271l63,106,2-7Z"/>
  <path class="cls-2" d="M916,656l-62-32-51-73,56,63,56,16Z"/>
  <path class="cls-2" d="M920,632l-17-70-15-36,32-8,12,36Z"/>
  <path class="cls-2" d="M871,496l58,44h31V494l-55-39-46.169-61.753L834,334l14-114-87-90,11-98L741,142l77,96-32,85,36.352,93.235Z"/>
  <path class="cls-3" d="M786,323l43,84,69,100-25-5-52-86Z"/>
  <path id="Shape_5_copy" data-name="Shape 5 copy" class="cls-3" d="M797,295l21-57-77-96L772,32,751,139l78,97-18,67-3,12Z"/>
  <path class="cls-2" d="M690,350l-37-58,15-69-29,69,31,62Z"/>
  <path class="cls-4" d="M921,978l-54,43-47,22-97-41-97,23-83-26-93,59-85-12-22,13-44-7-44-40-77,5-14,24-41,21-60,7-62,3v23l959,10V991Z"/>
  <path class="cls-5" d="M1091,1121"/>
  <path id="Shape_3_copy" data-name="Shape 3 copy" class="cls-3" d="M675,350l-30-58,23-69-29,69,29,59Z"/>
  <path class="cls-2" d="M790,330l-32-50-59-16,67,4,32,29Z"/>
  <path id="Shape_6_copy" data-name="Shape 6 copy" class="cls-3" d="M766,268l-67-4,62,10Z"/>
  <path class="cls-2" d="M847,223l63-37-15-82v72l-67,27Z"/>
  <path class="cls-6" d="M895,104v73l-62,25,11,10,57-32Z"/>
  <path class="cls-2" d="M897,461l43-89-40-78,27-35-37,31,27,81-37,53Z"/>
  <path id="Shape_8_copy" data-name="Shape 8 copy" class="cls-3" d="M892,434l34-62-31-79,32-34-37,31,27,81-34,48Z"/>
  <path class="cls-2" d="M723,482l-21,30-76-9,68-4,13-44Z"/>
  <path class="cls-3" d="M669,366l38,90-14,42-70,5,74,2,20-49-36-91Z"/>
  <path class="cls-3" d="M742,450l5,15,128,37-10-20Z"/>
  <path class="cls-3" d="M893,537l19,8,7,18,7,36V990H912V611l-3-25Z"/>
  <path class="cls-3" d="M804,552l55,62,53,15,1,11-58-22Z"/>
  <path id="Rectangle_1_copy" data-name="Rectangle 1 copy" class="cls-2" d="M1008,539H960V991h48V539Z"/>
  <path id="Shape_1_copy" data-name="Shape 1 copy" class="cls-2" d="M1005,544l197-62,48-116h62l30,19-30-29-63-6-18-2-53,102-165,45-29-1Z"/>
  <path id="Shape_2_copy" data-name="Shape 2 copy" class="cls-2" d="M1000,631l28-20,30-30-34,22-23,2Z"/>
  <path id="Shape_4_copy" data-name="Shape 4 copy" class="cls-2" d="M1000,632l17-70,15-36-32-8-12,36Z"/>
  <path id="Shape_5_copy_2" data-name="Shape 5 copy 2" class="cls-2" d="M1049,496l-58,44H960V494l55-39,46.17-61.753L1086,334l-14-114,44-108,102-60-93,67-23,119,32,85-36.35,93.235Z"/>
  <path id="Shape_16_copy" data-name="Shape 16 copy" class="cls-3" d="M1134,323l-43,84-69,100,25-5,52-86Z"/>
  <path id="Shape_5_copy_3" data-name="Shape 5 copy 3" class="cls-3" d="M1095,323l-16-100,40-108,99-65-103,62-44,112,12,90,2,26Z"/>
  <path id="Shape_3_copy_2" data-name="Shape 3 copy 2" class="cls-2" d="M1230,350l37-58-15-69,29,69-31,62Z"/>
  <path id="Shape_17_copy" data-name="Shape 17 copy" class="cls-4" d="M999,978l54,43,47,22,97-41,97,23,83-26,93,59,85-12,22,13,44-7,44-40,77,5,14,24,41,21,60,7,62,3v23l-959,10V991Z"/>
  <path id="Shape_18_copy" data-name="Shape 18 copy" class="cls-5" d="M829,1121"/>
  <path id="Shape_3_copy_3" data-name="Shape 3 copy 3" class="cls-3" d="M1245,350l30-58-23-69,29,69-29,59Z"/>
  <path id="Shape_6_copy_2" data-name="Shape 6 copy 2" class="cls-2" d="M1130,330l32-50,59-16-67,4-32,29Z"/>
  <path id="Shape_6_copy_3" data-name="Shape 6 copy 3" class="cls-3" d="M1154,268l67-4-62,10Z"/>
  <path id="Shape_7_copy" data-name="Shape 7 copy" class="cls-2" d="M1082,229l-72-43L983,86l42,90,54,26Z"/>
  <path id="Shape_8_copy_2" data-name="Shape 8 copy 2" class="cls-2" d="M1010,464l22-97-40-58,42-46-30,45,39,57-3,59Z"/>
  <path id="Shape_8_copy_3" data-name="Shape 8 copy 3" class="cls-3" d="M1009,462l23-92-40-61,43-48-36,48,38,60-9,66Z"/>
  <path id="Shape_9_copy" data-name="Shape 9 copy" class="cls-2" d="M1197,482l21,30,76-9-68-4-13-44Z"/>
  <path id="Shape_12_copy" data-name="Shape 12 copy" class="cls-3" d="M1251,366l-38,90,14,42,70,5-74,2-20-49,36-91Z"/>
  <path id="Shape_13_copy" data-name="Shape 13 copy" class="cls-3" d="M1178,450l-5,15-128,37,10-20Z"/>
  <path id="Shape_14_copy" data-name="Shape 14 copy" class="cls-3" d="M1027,537l-19,8-7,18-7,36V990h14V611l3-25Z"/>
  <path id="Shape_15_copy" data-name="Shape 15 copy" class="cls-3" d="M1065,575l-41,28-20,1-1,11,21-7Z"/>
  <path class="cls-4" d="M979,73l31,114,6-5Z"/>
</svg>
