<?xml version="1.0" encoding="UTF-8" standalone="no"?>
<!-- Created with Inkscape (http://www.inkscape.org/) -->

<svg
   xmlns:dc="http://purl.org/dc/elements/1.1/"
   xmlns:cc="http://creativecommons.org/ns#"
   xmlns:rdf="http://www.w3.org/1999/02/22-rdf-syntax-ns#"
   xmlns:svg="http://www.w3.org/2000/svg"
   xmlns="http://www.w3.org/2000/svg"
   xmlns:sodipodi="http://sodipodi.sourceforge.net/DTD/sodipodi-0.dtd"
   xmlns:inkscape="http://www.inkscape.org/namespaces/inkscape"
   width="210mm"
   height="297mm"
   viewBox="0 0 744.09448819 1052.3622047"
   id="svg3585"
   version="1.1"
   inkscape:version="0.91 r13725"
   sodipodi:docname="drawing1.svg">
  <defs
     id="defs3587" />
  <sodipodi:namedview
     id="base"
     pagecolor="#ffffff"
     bordercolor="#666666"
     borderopacity="1.0"
     inkscape:pageopacity="0.0"
     inkscape:pageshadow="2"
     inkscape:zoom="0.35"
     inkscape:cx="375"
     inkscape:cy="520"
     inkscape:document-units="px"
     inkscape:current-layer="layer1"
     showgrid="false"
     inkscape:window-width="1440"
     inkscape:window-height="808"
     inkscape:window-x="0"
     inkscape:window-y="1"
     inkscape:window-maximized="1" />
  <metadata
     id="metadata3590">
    <rdf:RDF>
      <cc:Work
         rdf:about="">
        <dc:format>image/svg+xml</dc:format>
        <dc:type
           rdf:resource="http://purl.org/dc/dcmitype/StillImage" />
        <dc:title></dc:title>
      </cc:Work>
    </rdf:RDF>
  </metadata>
  <g
     inkscape:label="Layer 1"
     inkscape:groupmode="layer"
     id="layer1">
    <path
       style="fill:none;fill-rule:evenodd;stroke:#000000;stroke-width:1px;stroke-linecap:butt;stroke-linejoin:miter;stroke-opacity:1"
       d="m 294.28571,363.79077 c 0.71625,12.17647 -16.06027,6.97294 -20.2381,1.19047 -11.32167,-15.67015 2.47075,-35.75322 17.85717,-41.66666 27.52268,-10.57777 55.84659,10.49386 63.09521,36.9048 10.63765,38.7591 -18.53748,76.29107 -55.95242,84.52377 -49.86824,10.97291 -96.87048,-26.5768 -105.95234,-75.00005 -11.4286,-60.93572 34.61125,-117.51671 94.04768,-127.3809 71.98549,-11.94687 138.20107,42.64239 148.80947,113.09531 C 448.454,438.48385 385.281,514.3668 303.80943,525.69554 209.74727,538.77501 124.17599,466.99662 112.14284,374.50496 98.470013,269.41006 178.86833,174.13622 282.38105,161.40981 398.50669,147.1327 503.49321,236.16117 516.90476,350.69565 531.79412,477.85064 434.12804,592.55733 308.57129,606.64792"
       id="path3593" />
  </g>
</svg>
