<svg xmlns="http://www.w3.org/2000/svg" viewBox="0 0 710 400">
  <metadata><?xpacket begin="﻿" id="W5M0MpCehiHzreSzNTczkc9d"?>
<x:xmpmeta xmlns:x="adobe:ns:meta/" x:xmptk="Adobe XMP Core 5.6-c140 79.160451, 2017/05/06-01:08:21        ">
   <rdf:RDF xmlns:rdf="http://www.w3.org/1999/02/22-rdf-syntax-ns#">
      <rdf:Description rdf:about=""/>
   </rdf:RDF>
</x:xmpmeta>
                                                                                                    
                                                                                                    
                                                                                                    
                                                                                                    
                                                                                                    
                                                                                                    
                                                                                                    
                                                                                                    
                                                                                                    
                                                                                                    
                                                                                                    
                                                                                                    
                                                                                                    
                                                                                                    
                                                                                                    
                                                                                                    
                                                                                                    
                                                                                                    
                                                                                                    
                                                                                                    
                           
<?xpacket end="w"?></metadata>
<defs>
    <style>
      .cls-1 {
        height:2.5em;  
        fill: #fff8e8;
        fill-rule: evenodd;
      }
    </style>
  </defs>
  <path id="UI_" data-name="UI " class="cls-1" d="M600,491c110.457,0,200,89.543,200,200S710.457,891,600,891,400,801.457,400,691,489.543,491,600,491ZM554.508,706.123q0,15-5.3,22.7t-17.3,7.7q-12.4,0-18.2-7.2t-5.8-23.2v-87.6h-27.4v93q0,24.2,12.5,36.8t38.5,12.6a58.8,58.8,0,0,0,19.8-3.2,41.039,41.039,0,0,0,15.5-9.7,44.117,44.117,0,0,0,10.1-16.4q3.6-9.9,3.6-23.5v-89.6h-26v87.6Zm46.8,52.4h98.4v-24.4h-35.6v-91.2h35.6v-24.4h-98.4v24.4h35.4v91.2h-35.4v24.4Z" transform="translate(-400 -491)"/>
  <path id="UX" class="cls-1" d="M910,491c110.46,0,200,89.543,200,200s-89.54,200-200,200S710,801.457,710,691,799.543,491,910,491ZM884,712.138q0,15-5.3,22.7t-17.3,7.7q-12.4,0-18.2-7.2t-5.8-23.2v-87.6H810v93q0,24.2,12.5,36.8t38.5,12.6a58.8,58.8,0,0,0,19.8-3.2,41.015,41.015,0,0,0,15.5-9.7,44.109,44.109,0,0,0,10.1-16.4q3.6-9.9,3.6-23.5v-89.6H884v87.6Zm37.4,52.4h31l22.4-40,0.154-.321c0.864-1.793,5.046-10.479,5.046-10.479l5.4,10.8,21.4,40h32l-41.4-71.6,40.2-68.4h-31l-20.8,38-4.4,10.2-0.89-1.973-3.71-8.227-20.4-38h-32l39.6,68.2Z" transform="translate(-400 -491)"/>
</svg>
